HIERARCHY
ROOT Hips
{
  OFFSET 5.80788e-005 67.184 3.4734
  CHANNELS 6 Xposition Yposition Zposition Zrotation Xrotation Yrotation
  JOINT Chest
  {
    OFFSET 0 8.7983 -4.7612
    CHANNELS 3 Zrotation Xrotation Yrotation
    JOINT Chest2
    {
      OFFSET 0 8.0291 0.4195
      CHANNELS 3 Zrotation Xrotation Yrotation
      JOINT Chest3
      {
        OFFSET 0 9.9351 -2.2114
        CHANNELS 3 Zrotation Xrotation Yrotation
        JOINT Neck
        {
          OFFSET 0 22.3885 -0.4656
          CHANNELS 3 Zrotation Xrotation Yrotation
          JOINT Head
          {
            OFFSET -0.0001 12.643 3.4389
            CHANNELS 3 Zrotation Xrotation Yrotation
            End Site
            {
              OFFSET 0.0001 17.6655 0.5274
            }
          }
        }
        JOINT LeftCollar
        {
          OFFSET 2.2603 21.606 7.4023
          CHANNELS 3 Zrotation Xrotation Yrotation
          JOINT LeftShoulder
          {
            OFFSET 13.5163 -1.1332 -5.0146
            CHANNELS 3 Zrotation Xrotation Yrotation
            JOINT LeftElbow
            {
              OFFSET -0.0995 -28.05 -0.2431
              CHANNELS 3 Zrotation Xrotation Yrotation
              JOINT LeftWrist
              {
                OFFSET 0.0679 -23.3996 -0.1402
                CHANNELS 3 Zrotation Xrotation Yrotation
                JOINT LeftFinger1
                {
                  OFFSET 0.7932 -9.069 2.5189
                  CHANNELS 3 Zrotation Xrotation Yrotation
                  JOINT LeftFinger11
                  {
                    OFFSET -0.8272 -3.3923 0.5977
                    CHANNELS 3 Zrotation Xrotation Yrotation
                    JOINT LeftFinger12
                    {
                      OFFSET -0.5649 -2.3158 0.4082
                      CHANNELS 3 Zrotation Xrotation Yrotation
                      End Site
                      {
                        OFFSET -0.4919 -1.6479 0.2673
                      }
                    }
                  }
                }
                JOINT LeftFinger2
                {
                  OFFSET 0.9159 -9.2044 0.2193
                  CHANNELS 3 Zrotation Xrotation Yrotation
                  JOINT LeftFinger21
                  {
                    OFFSET 0.0117 -4.1944 -0.0248
                    CHANNELS 3 Zrotation Xrotation Yrotation
                    JOINT LeftFinger22
                    {
                      OFFSET 0.0071 -2.3249 -0.0142
                      CHANNELS 3 Zrotation Xrotation Yrotation
                      End Site
                      {
                        OFFSET -0.1475 -2.0882 0.0028
                      }
                    }
                  }
                }
                JOINT LeftFinger3
                {
                  OFFSET 0.6113 -8.7231 -2.0637
                  CHANNELS 3 Zrotation Xrotation Yrotation
                  JOINT LeftFinger31
                  {
                    OFFSET -0.1927 -3.8059 -0.2383
                    CHANNELS 3 Zrotation Xrotation Yrotation
                    JOINT LeftFinger32
                    {
                      OFFSET -0.1091 -2.1688 -0.1362
                      CHANNELS 3 Zrotation Xrotation Yrotation
                      End Site
                      {
                        OFFSET -0.2358 -1.9176 -0.0906
                      }
                    }
                  }
                }
                JOINT LeftFinger4
                {
                  OFFSET -0.6151 -8.0947 -3.5641
                  CHANNELS 3 Zrotation Xrotation Yrotation
                  JOINT LeftFinger41
                  {
                    OFFSET -0.4882 -2.341 -0.6462
                    CHANNELS 3 Zrotation Xrotation Yrotation
                    JOINT LeftFinger42
                    {
                      OFFSET -0.3575 -1.7167 -0.4742
                      CHANNELS 3 Zrotation Xrotation Yrotation
                      End Site
                      {
                        OFFSET -0.4187 -1.5237 -0.3496
                      }
                    }
                  }
                }
                JOINT LeftFinger0
                {
                  OFFSET -1.42 -1.8761 1.4223
                  CHANNELS 3 Zrotation Xrotation Yrotation
                  JOINT LeftFinger01
                  {
                    OFFSET -1.1471 -3.4929 2.6334
                    CHANNELS 3 Zrotation Xrotation Yrotation
                    JOINT LeftFinger02
                    {
                      OFFSET -0.823 -2.3 1.6571
                      CHANNELS 3 Zrotation Xrotation Yrotation
                      End Site
                      {
                        OFFSET -0.5822 -1.6914 1.1582
                      }
                    }
                  }
                }
              }
            }
          }
        }
        JOINT RightCollar
        {
          OFFSET -2.2603 21.606 7.4023
          CHANNELS 3 Zrotation Xrotation Yrotation
          JOINT RightShoulder
          {
            OFFSET -13.5187 -1.1334 -5.0155
            CHANNELS 3 Zrotation Xrotation Yrotation
            JOINT RightElbow
            {
              OFFSET 0.0994 -28.0499 -0.2431
              CHANNELS 3 Zrotation Xrotation Yrotation
              JOINT RightWrist
              {
                OFFSET -0.0679 -23.3996 -0.1402
                CHANNELS 3 Zrotation Xrotation Yrotation
                JOINT RightFinger1
                {
                  OFFSET -0.7932 -9.0691 2.5189
                  CHANNELS 3 Zrotation Xrotation Yrotation
                  JOINT RightFinger11
                  {
                    OFFSET 0.8272 -3.3923 0.5977
                    CHANNELS 3 Zrotation Xrotation Yrotation
                    JOINT RightFinger12
                    {
                      OFFSET 0.565 -2.3158 0.4082
                      CHANNELS 3 Zrotation Xrotation Yrotation
                      End Site
                      {
                        OFFSET 0.4919 -1.6479 0.2673
                      }
                    }
                  }
                }
                JOINT RightFinger2
                {
                  OFFSET -0.916 -9.2044 0.2193
                  CHANNELS 3 Zrotation Xrotation Yrotation
                  JOINT RightFinger21
                  {
                    OFFSET -0.0117 -4.1944 -0.0248
                    CHANNELS 3 Zrotation Xrotation Yrotation
                    JOINT RightFinger22
                    {
                      OFFSET -0.0071 -2.3249 -0.0142
                      CHANNELS 3 Zrotation Xrotation Yrotation
                      End Site
                      {
                        OFFSET 0.1475 -2.0882 0.0028
                      }
                    }
                  }
                }
                JOINT RightFinger3
                {
                  OFFSET -0.6113 -8.7231 -2.0637
                  CHANNELS 3 Zrotation Xrotation Yrotation
                  JOINT RightFinger31
                  {
                    OFFSET 0.1927 -3.8059 -0.2383
                    CHANNELS 3 Zrotation Xrotation Yrotation
                    JOINT RightFinger32
                    {
                      OFFSET 0.1091 -2.1688 -0.1362
                      CHANNELS 3 Zrotation Xrotation Yrotation
                      End Site
                      {
                        OFFSET 0.2358 -1.9176 -0.0906
                      }
                    }
                  }
                }
                JOINT RightFinger4
                {
                  OFFSET 0.6151 -8.0947 -3.564
                  CHANNELS 3 Zrotation Xrotation Yrotation
                  JOINT RightFinger41
                  {
                    OFFSET 0.4882 -2.341 -0.6462
                    CHANNELS 3 Zrotation Xrotation Yrotation
                    JOINT RightFinger42
                    {
                      OFFSET 0.3574 -1.7166 -0.4742
                      CHANNELS 3 Zrotation Xrotation Yrotation
                      End Site
                      {
                        OFFSET 0.4187 -1.5237 -0.3496
                      }
                    }
                  }
                }
                JOINT RightFinger0
                {
                  OFFSET 1.4199 -1.8761 1.4221
                  CHANNELS 3 Zrotation Xrotation Yrotation
                  JOINT RightFinger01
                  {
                    OFFSET 1.1472 -3.4929 2.6336
                    CHANNELS 3 Zrotation Xrotation Yrotation
                    JOINT RightFinger02
                    {
                      OFFSET 0.8229 -2.3 1.6571
                      CHANNELS 3 Zrotation Xrotation Yrotation
                      End Site
                      {
                        OFFSET 0.5822 -1.6914 1.1582
                      }
                    }
                  }
                }
              }
            }
          }
        }
      }
    }
  }
  JOINT RightHip
  {
    OFFSET -9.412 3.9771 -0.7758
    CHANNELS 3 Zrotation Xrotation Yrotation
    JOINT RightKnee
    {
      OFFSET -0.7531 -40.938 0
      CHANNELS 3 Zrotation Xrotation Yrotation
      JOINT RightAnkle
      {
        OFFSET 0 -40.1986 0
        CHANNELS 3 Zrotation Xrotation Yrotation
        JOINT RightToe
        {
          OFFSET 0 -4.4182 9.239
          CHANNELS 3 Zrotation Xrotation Yrotation
          End Site
          {
            OFFSET 0 0 6.1981
          }
        }
      }
    }
  }
  JOINT LeftHip
  {
    OFFSET 9.4119 3.9773 -0.7758
    CHANNELS 3 Zrotation Xrotation Yrotation
    JOINT LeftKnee
    {
      OFFSET 0.7532 -40.9383 0
      CHANNELS 3 Zrotation Xrotation Yrotation
      JOINT LeftAnkle
      {
        OFFSET 0 -40.1986 0
        CHANNELS 3 Zrotation Xrotation Yrotation
        JOINT LeftToe
        {
          OFFSET 0 -4.4182 9.239
          CHANNELS 3 Zrotation Xrotation Yrotation
          End Site
          {
            OFFSET 0 0 6.1981
          }
        }
      }
    }
  }
}
MOTION
Frames:	4
Frame Time:	0.0333333
-0.608963 65.9197 10.4449 -4.304e-008 -31.623 -3.61055e-008 -0.135737 10.3597 -0.0753531 -0.264007 20.7195 -0.128507 -0.264007 20.7196 -0.128507 4.52829e-006 -35.5258 2.43447e-006 7.82737e-009 -26.6399 2.3203e-008 -8.00266 -0.194677 -12.5014 30.2464 4.0676 21.3943 -5.1459 -25.5108 -2.00806 -6.88344 1.25944 -0.137988 -8.07563e-016 -3.18055e-015 3.47873e-016 -2.39784e-015 -3.18055e-015 4.96962e-017 -7.99832e-008 8.42331e-007 -5.27567e-007 -8.07563e-016 -3.18055e-015 3.47873e-016 -0.0128883 0.0023378 8.63936e-005 -1.59925e-008 8.44303e-007 -1.05514e-007 -8.07563e-016 -3.18055e-015 3.47873e-016 -0.0159779 0.00298044 0.000854371 -2.26118e-015 0 3.47873e-016 -8.07563e-016 -3.18055e-015 3.47873e-016 -0.0124964 0.00310232 0.00280899 1.60227e-006 3.93256e-008 -5.69142e-007 -8.07563e-016 -3.18055e-015 3.47873e-016 -2.39784e-015 -3.18055e-015 4.96962e-017 -7.99832e-008 8.42331e-007 -5.27567e-007 7.13352 -0.0290828 7.03568 -30.2219 2.57705 -16.6909 4.99811 -25.5434 1.62498 6.87363 1.25171 0.312695 3.95977e-008 -3.5204e-010 3.17613e-007 6.95746e-016 0 -0 6.59962e-008 8.47379e-007 5.29355e-007 3.95977e-008 -3.5204e-010 3.17613e-007 0.0129811 0.00232246 -8.57901e-005 3.77691e-015 -1.59028e-015 1.98785e-016 3.95977e-008 -3.5204e-010 3.17613e-007 0.0163444 0.0030351 -0.000872638 1.31944e-008 4.17356e-007 1.05872e-007 3.95977e-008 -3.5204e-010 3.17613e-007 0.014586 0.00367986 -0.00326404 -1.9133e-015 -1.59028e-015 -0 3.95977e-008 -3.5204e-010 3.17613e-007 6.95746e-016 0 -0 6.59962e-008 8.47379e-007 5.29355e-007 -6.75658 16.3768 -11.5874 -0.339622 36.2242 0.641917 11.4325 -21.9896 -2.31419 -7.19618e-007 1.818e-007 1.6185e-006 7.7197 16.4708 11.3028 0.315208 35.9201 -0.634625 -12.2583 -21.5924 1.92575 -9.72162e-007 -8.31528e-008 -1.57327e-006 
-0.60895 65.8513 10.372 8.90821e-010 -31.0437 1.72743e-009 -0.137843 10.2463 -0.0769024 -0.268049 20.4929 -0.131515 -0.26805 20.493 -0.131515 4.65946e-006 -34.9284 2.35513e-006 -1.92563e-007 -26.189 -8.37986e-008 -8.00265 -0.19469 -12.5014 30.2464 4.06755 21.3943 -5.14594 -25.5108 -2.00805 -6.88341 1.25945 -0.137988 6.39042e-008 1.57589e-009 4.22067e-007 1.27808e-007 3.15178e-009 8.44133e-007 1.32502e-005 -1.35181e-006 -1.7019e-006 6.39042e-008 1.57589e-009 4.22067e-007 -0.0128361 0.00232927 8.60665e-005 7.3049e-006 -4.00047e-006 -1.19716e-006 6.39042e-008 1.57589e-009 4.22067e-007 -0.0159753 0.00298292 0.000853421 1.3315e-005 -2.15759e-006 -1.27918e-006 6.39042e-008 1.57589e-009 4.22067e-007 -0.0125944 0.00312708 0.00283263 3.20493e-006 7.8885e-008 -1.13757e-006 6.39042e-008 1.57589e-009 4.22067e-007 1.27808e-007 3.15178e-009 8.44133e-007 1.32502e-005 -1.35181e-006 -1.7019e-006 7.13352 -0.0290945 7.03568 -30.2218 2.57709 -16.6909 4.99809 -25.5434 1.62498 6.87367 1.25171 0.312703 5.96354e-016 -1.59028e-015 -3.97569e-016 5.26952e-008 -3.9767e-010 4.23497e-007 -6.34903e-006 1.3659e-006 1.71183e-006 5.96354e-016 -1.59028e-015 -3.97569e-016 0.012985 0.00232272 -8.57541e-005 -6.5061e-006 -1.64722e-006 1.28078e-006 5.96354e-016 -1.59028e-015 -3.97569e-016 0.0162898 0.00302743 -0.000868966 -3.27944e-006 2.44443e-008 4.28612e-007 5.96354e-016 -1.59028e-015 -3.97569e-016 0.014491 0.00365803 -0.00324121 -8.35656e-006 -7.79312e-007 -1.98969e-007 5.96354e-016 -1.59028e-015 -3.97569e-016 5.26952e-008 -3.9767e-010 4.23497e-007 -6.34903e-006 1.3659e-006 1.71183e-006 -6.73931 15.6897 -11.634 -0.373424 36.3752 0.659246 11.4334 -21.9922 -2.31667 -2.98177e-015 7.95139e-016 -0 7.70169 15.7848 11.3565 0.34456 36.0718 -0.649954 -12.2591 -21.5948 1.92824 8.45111e-007 1.31031e-007 -2.22983e-008 
-0.608941 65.795 10.3113 -6.8488e-009 -30.5637 -3.41773e-009 -0.139622 10.1528 -0.078093 -0.271487 20.3058 -0.133814 -0.271487 20.3059 -0.133815 4.62018e-006 -34.3899 2.51423e-006 3.80276e-008 -25.7828 -2.80866e-008 -8.00265 -0.194679 -12.5014 30.2466 4.06749 21.3942 -5.146 -25.5107 -2.00804 -6.88342 1.25945 -0.137985 1.67434e-006 4.08035e-008 -9.36722e-008 -8.40361e-006 -2.07172e-007 2.57321e-007 -6.38226e-008 -1.57697e-009 -4.22079e-007 1.67434e-006 4.08035e-008 -9.36722e-008 -0.0128757 0.00233556 8.66026e-005 1.93815e-015 0 -1.09332e-015 1.67434e-006 4.08035e-008 -9.36722e-008 -0.0161036 0.0030052 0.00086166 -1.59469e-006 -3.91882e-008 6.21193e-007 1.67434e-006 4.08035e-008 -9.36722e-008 -0.0125712 0.00311603 0.00282246 -1.59501e-008 8.4435e-007 -1.05521e-007 1.67434e-006 4.08035e-008 -9.36722e-008 -8.40361e-006 -2.07172e-007 2.57321e-007 -6.38226e-008 -1.57697e-009 -4.22079e-007 7.13352 -0.0290846 7.03568 -30.2219 2.57707 -16.6909 4.99812 -25.5434 1.62499 6.87365 1.25173 0.312694 3.18561e-006 3.50547e-007 -3.29439e-007 5.25991e-008 -3.94213e-010 4.23508e-007 6.57489e-008 8.47438e-007 5.29385e-007 3.18561e-006 3.50547e-007 -3.29439e-007 0.0129681 0.00231986 -8.52342e-005 -6.95746e-016 3.18055e-015 -1.98785e-016 3.18561e-006 3.50547e-007 -3.29439e-007 0.0163141 0.00302935 -0.000871923 5.25797e-008 -4.17722e-007 4.23511e-007 3.18561e-006 3.50547e-007 -3.29439e-007 0.014606 0.00368435 -0.00326556 5.25745e-008 -4.17722e-007 4.23511e-007 3.18561e-006 3.50547e-007 -3.29439e-007 5.25991e-008 -3.94213e-010 4.23508e-007 6.57489e-008 8.47438e-007 5.29385e-007 -6.72545 15.12 -11.6724 -0.401459 36.4999 0.67368 11.4341 -21.9944 -2.31873 3.98427e-006 -6.06516e-007 -1.63972e-006 7.68734 15.2164 11.4009 0.368753 36.1967 -0.662686 -12.2597 -21.5968 1.93024 -5.96354e-016 1.59028e-015 -3.18055e-015 
-0.608929 65.7389 10.25 6.4851e-008 -30.0833 6.36373e-008 -0.141346 10.0592 -0.0793683 -0.2748 20.1187 -0.136302 -0.2748 20.1187 -0.136302 3.4352e-006 -33.8506 1.84922e-006 3.49652e-007 -25.3764 3.12262e-008 -8.00265 -0.194622 -12.5014 30.2464 4.0676 21.3943 -5.14592 -25.5108 -2.00807 -6.88344 1.25944 -0.137979 -3.16192e-015 -1.59028e-015 1.98785e-016 6.53838e-006 1.6201e-007 -1.42844e-006 -4.96962e-016 -1.59028e-015 -4.96962e-017 -3.16192e-015 -1.59028e-015 1.98785e-016 -0.0128352 0.00232695 8.41607e-005 5.34234e-016 0 1.49089e-016 -3.16192e-015 -1.59028e-015 1.98785e-016 -0.0160562 0.00299684 0.000856931 -1.59294e-008 8.44766e-007 -1.05524e-007 -3.16192e-015 -1.59028e-015 1.98785e-016 -0.0125806 0.00312167 0.0028253 -6.37164e-008 -8.08433e-007 -4.22096e-007 -3.16192e-015 -1.59028e-015 1.98785e-016 6.53838e-006 1.6201e-007 -1.42844e-006 -4.96962e-016 -1.59028e-015 -4.96962e-017 7.13352 -0.0290232 7.03567 -30.2218 2.57709 -16.6909 4.99809 -25.5434 1.62499 6.87363 1.25172 0.312696 -5.24999e-008 3.41666e-010 -4.2352e-007 2.75814e-015 2.38542e-015 9.93923e-016 1.19271e-015 1.59028e-015 5.96354e-016 -5.24999e-008 3.41666e-010 -4.2352e-007 0.0129643 0.00231858 -8.50124e-005 -5.24851e-008 3.89761e-010 -4.23522e-007 -5.24999e-008 3.41666e-010 -4.2352e-007 0.0163256 0.00303133 -0.000871309 -1.59028e-015 7.95139e-016 -0 -5.24999e-008 3.41666e-010 -4.2352e-007 0.0146442 0.00369416 -0.00327609 7.20594e-016 2.38542e-015 5.96354e-016 -5.24999e-008 3.41666e-010 -4.2352e-007 2.75814e-015 2.38542e-015 9.93923e-016 1.19271e-015 1.59028e-015 5.96354e-016 -6.71198 14.5497 -11.7106 -0.42948 36.6243 0.688191 11.4349 -21.9965 -2.32078 -1.39149e-015 -1.59028e-015 -3.18055e-015 7.67339 14.647 11.4449 0.393057 36.3215 -0.675499 -12.2603 -21.5987 1.93232 7.21679e-007 1.81923e-007 -1.61842e-006 
